<?xml version="1.0" encoding="UTF-8" standalone="no"?>
<!DOCTYPE svg PUBLIC "-//W3C//DTD SVG 1.1//EN"
 "http://www.w3.org/Graphics/SVG/1.1/DTD/svg11.dtd">
<!-- Generated by graphviz version 2.43.0 (0)
 -->
<!-- Title: fsm Pages: 1 -->
<svg width="295pt" height="130pt"
 viewBox="0.00 0.00 294.92 129.64" xmlns="http://www.w3.org/2000/svg" xmlns:xlink="http://www.w3.org/1999/xlink">
<g id="graph0" class="graph" transform="scale(1 1) rotate(0) translate(4 125.64)">
<title>fsm</title>
<polygon fill="white" stroke="transparent" points="-4,4 -4,-125.64 290.92,-125.64 290.92,4 -4,4"/>
<!-- s0 -->
<g id="node1" class="node">
<title>s0</title>
<ellipse fill="lightyellow" stroke="black" cx="35.82" cy="-67.82" rx="31.66" ry="31.66"/>
<ellipse fill="none" stroke="black" cx="35.82" cy="-67.82" rx="35.64" ry="35.64"/>
<text text-anchor="middle" x="35.82" y="-64.12" font-family="monospace" font-size="14.00">s0</text>
</g>
<!-- s0&#45;&gt;s0 -->
<g id="edge1" class="edge">
<title>s0&#45;&gt;s0</title>
<path fill="none" stroke="#555555" d="M16.15,-97.98C14.67,-110.76 21.22,-121.64 35.82,-121.64 46.31,-121.64 52.65,-116.02 54.83,-108.11"/>
<polygon fill="#555555" stroke="#555555" points="58.34,-108.18 55.49,-97.98 51.35,-107.73 58.34,-108.18"/>
</g>
<!-- s2 -->
<g id="node2" class="node">
<title>s2</title>
<ellipse fill="lightyellow" stroke="black" cx="143.46" cy="-67.82" rx="31.66" ry="31.66"/>
<ellipse fill="none" stroke="black" cx="143.46" cy="-67.82" rx="35.64" ry="35.64"/>
<text text-anchor="middle" x="143.46" y="-64.12" font-family="monospace" font-size="14.00">s2</text>
</g>
<!-- s0&#45;&gt;s2 -->
<g id="edge3" class="edge">
<title>s0&#45;&gt;s2</title>
<path fill="none" stroke="#555555" d="M71.12,-61.45C79.61,-61.09 88.82,-60.98 97.73,-61.14"/>
<polygon fill="#555555" stroke="#555555" points="97.87,-64.65 107.97,-61.44 98.08,-57.65 97.87,-64.65"/>
</g>
<!-- s2&#45;&gt;s0 -->
<g id="edge2" class="edge">
<title>s2&#45;&gt;s0</title>
<path fill="none" stroke="#555555" d="M107.97,-74.19C99.47,-74.56 90.25,-74.66 81.35,-74.5"/>
<polygon fill="#555555" stroke="#555555" points="81.22,-70.99 71.12,-74.19 81.01,-77.99 81.22,-70.99"/>
</g>
<!-- s2&#45;&gt;s2 -->
<g id="edge7" class="edge">
<title>s2&#45;&gt;s2</title>
<path fill="none" stroke="#555555" d="M123.79,-97.98C122.31,-110.76 128.86,-121.64 143.46,-121.64 153.95,-121.64 160.29,-116.02 162.47,-108.11"/>
<polygon fill="#555555" stroke="#555555" points="165.97,-108.18 163.13,-97.98 158.99,-107.73 165.97,-108.18"/>
</g>
<!-- s1 -->
<g id="node3" class="node">
<title>s1</title>
<ellipse fill="lightyellow" stroke="black" cx="251.1" cy="-35.82" rx="31.66" ry="31.66"/>
<ellipse fill="none" stroke="black" cx="251.1" cy="-35.82" rx="35.64" ry="35.64"/>
<text text-anchor="middle" x="251.1" y="-32.12" font-family="monospace" font-size="14.00">s1</text>
</g>
<!-- s2&#45;&gt;s1 -->
<g id="edge5" class="edge">
<title>s2&#45;&gt;s1</title>
<path fill="none" stroke="#555555" d="M177.88,-57.69C187.04,-54.92 197.09,-51.88 206.71,-48.96"/>
<polygon fill="#555555" stroke="#555555" points="207.97,-52.24 216.53,-45.99 205.94,-45.54 207.97,-52.24"/>
</g>
<!-- s1&#45;&gt;s0 -->
<g id="edge4" class="edge">
<title>s1&#45;&gt;s0</title>
<path fill="none" stroke="#555555" d="M216.61,-25.91C187.31,-18.84 143.89,-12.28 107.64,-22.82 95.28,-26.41 83.01,-32.89 72.25,-39.83"/>
<polygon fill="#555555" stroke="#555555" points="70.28,-36.94 63.96,-45.45 74.2,-42.73 70.28,-36.94"/>
</g>
<!-- s1&#45;&gt;s1 -->
<g id="edge6" class="edge">
<title>s1&#45;&gt;s1</title>
<path fill="none" stroke="#555555" d="M231.43,-65.98C229.95,-78.76 236.5,-89.64 251.1,-89.64 261.59,-89.64 267.93,-84.02 270.11,-76.11"/>
<polygon fill="#555555" stroke="#555555" points="273.61,-76.18 270.77,-65.98 266.63,-75.73 273.61,-76.18"/>
</g>
</g>
</svg>
