<svg xmlns="http://www.w3.org/2000/svg" xmlns:xlink="http://www.w3.org/1999/xlink" xmlns:s="https://github.com/nturley/netlistsvg" width="1472" height="1350.5">
  <style>svg {
    stroke:#000;
    fill:none;
  }
  text {
    fill:#000;
    stroke:none;
    font-size:10px;
    font-weight: bold;
    font-family: "Courier New", monospace;
  }
  .nodelabel {
    text-anchor: middle;
  }
  .inputPortLabel {
    text-anchor: end;
  }
  .splitjoinBody {
    fill:#000;
  }</style>
  <g s:type="add" transform="translate(789.3333333333334,311.5)" s:width="25" s:height="25" id="cell_$add$rtl/uart.v:227$68">
    <s:alias val="$add"/>
    <circle r="12.5" cx="12.5" cy="12.5" class="cell_$add$rtl/uart.v:227$68"/>
    <line x1="7.5" x2="17.5" y1="12.5" y2="12.5" class="cell_$add$rtl/uart.v:227$68"/>
    <line x1="12.5" x2="12.5" y1="7.5" y2="17.5" class="cell_$add$rtl/uart.v:227$68"/>
    <g s:x="3" s:y="5" s:pid="A"/>
    <g s:x="3" s:y="20" s:pid="B"/>
    <g s:x="25" s:y="12.5" s:pid="Y"/>
  </g>
  <g s:type="add" transform="translate(1174,263)" s:width="25" s:height="25" id="cell_$add$rtl/uart.v:251$58">
    <s:alias val="$add"/>
    <circle r="12.5" cx="12.5" cy="12.5" class="cell_$add$rtl/uart.v:251$58"/>
    <line x1="7.5" x2="17.5" y1="12.5" y2="12.5" class="cell_$add$rtl/uart.v:251$58"/>
    <line x1="12.5" x2="12.5" y1="7.5" y2="17.5" class="cell_$add$rtl/uart.v:251$58"/>
    <g s:x="3" s:y="5" s:pid="A"/>
    <g s:x="3" s:y="20" s:pid="B"/>
    <g s:x="25" s:y="12.5" s:pid="Y"/>
  </g>
  <g s:type="generic" transform="translate(1174,1136.5)" s:width="30" s:height="40" id="cell_$auto$ff.cc:266:slice$116">
    <text x="15" y="-4" class="nodelabel cell_$auto$ff.cc:266:slice$116" s:attribute="ref">$sdff</text>
    <rect width="30" height="60" s:generic="body" class="cell_$auto$ff.cc:266:slice$116"/>
    <g transform="translate(0,10)" s:x="0" s:y="10" s:pid="in0" id="port_$auto$ff.cc:266:slice$116~CLK">
      <text x="-3" y="-4" class="inputPortLabel cell_$auto$ff.cc:266:slice$116">CLK</text>
    </g>
    <g transform="translate(0,30)" s:x="0" s:y="10" s:pid="in0" id="port_$auto$ff.cc:266:slice$116~D">
      <text x="-3" y="-4" class="inputPortLabel cell_$auto$ff.cc:266:slice$116">D</text>
    </g>
    <g transform="translate(0,50)" s:x="0" s:y="10" s:pid="in0" id="port_$auto$ff.cc:266:slice$116~SRST">
      <text x="-3" y="-4" class="inputPortLabel cell_$auto$ff.cc:266:slice$116">SRST</text>
    </g>
    <g transform="translate(30,10)" s:x="30" s:y="10" s:pid="out0" id="port_$auto$ff.cc:266:slice$116~Q">
      <text x="5" y="-4" style="fill:#000; stroke:none" class="cell_$auto$ff.cc:266:slice$116">Q</text>
    </g>
  </g>
  <g s:type="generic" transform="translate(964,1275.5)" s:width="30" s:height="40" id="cell_$auto$ff.cc:266:slice$117">
    <text x="15" y="-4" class="nodelabel cell_$auto$ff.cc:266:slice$117" s:attribute="ref">$sdff</text>
    <rect width="30" height="60" s:generic="body" class="cell_$auto$ff.cc:266:slice$117"/>
    <g transform="translate(0,10)" s:x="0" s:y="10" s:pid="in0" id="port_$auto$ff.cc:266:slice$117~CLK">
      <text x="-3" y="-4" class="inputPortLabel cell_$auto$ff.cc:266:slice$117">CLK</text>
    </g>
    <g transform="translate(0,30)" s:x="0" s:y="10" s:pid="in0" id="port_$auto$ff.cc:266:slice$117~D">
      <text x="-3" y="-4" class="inputPortLabel cell_$auto$ff.cc:266:slice$117">D</text>
    </g>
    <g transform="translate(0,50)" s:x="0" s:y="10" s:pid="in0" id="port_$auto$ff.cc:266:slice$117~SRST">
      <text x="-3" y="-4" class="inputPortLabel cell_$auto$ff.cc:266:slice$117">SRST</text>
    </g>
    <g transform="translate(30,10)" s:x="30" s:y="10" s:pid="out0" id="port_$auto$ff.cc:266:slice$117~Q">
      <text x="5" y="-4" style="fill:#000; stroke:none" class="cell_$auto$ff.cc:266:slice$117">Q</text>
    </g>
  </g>
  <g s:type="generic" transform="translate(338,337.5)" s:width="30" s:height="40" id="cell_$auto$ff.cc:266:slice$119">
    <text x="15" y="-4" class="nodelabel cell_$auto$ff.cc:266:slice$119" s:attribute="ref">$sdff</text>
    <rect width="30" height="60" s:generic="body" class="cell_$auto$ff.cc:266:slice$119"/>
    <g transform="translate(0,10)" s:x="0" s:y="10" s:pid="in0" id="port_$auto$ff.cc:266:slice$119~CLK">
      <text x="-3" y="-4" class="inputPortLabel cell_$auto$ff.cc:266:slice$119">CLK</text>
    </g>
    <g transform="translate(0,30)" s:x="0" s:y="10" s:pid="in0" id="port_$auto$ff.cc:266:slice$119~D">
      <text x="-3" y="-4" class="inputPortLabel cell_$auto$ff.cc:266:slice$119">D</text>
    </g>
    <g transform="translate(0,50)" s:x="0" s:y="10" s:pid="in0" id="port_$auto$ff.cc:266:slice$119~SRST">
      <text x="-3" y="-4" class="inputPortLabel cell_$auto$ff.cc:266:slice$119">SRST</text>
    </g>
    <g transform="translate(30,10)" s:x="30" s:y="10" s:pid="out0" id="port_$auto$ff.cc:266:slice$119~Q">
      <text x="5" y="-4" style="fill:#000; stroke:none" class="cell_$auto$ff.cc:266:slice$119">Q</text>
    </g>
  </g>
  <g s:type="generic" transform="translate(964,160)" s:width="30" s:height="40" id="cell_$auto$ff.cc:266:slice$125">
    <text x="15" y="-4" class="nodelabel cell_$auto$ff.cc:266:slice$125" s:attribute="ref">$sdffe</text>
    <rect width="30" height="80" s:generic="body" class="cell_$auto$ff.cc:266:slice$125"/>
    <g transform="translate(0,10)" s:x="0" s:y="10" s:pid="in0" id="port_$auto$ff.cc:266:slice$125~CLK">
      <text x="-3" y="-4" class="inputPortLabel cell_$auto$ff.cc:266:slice$125">CLK</text>
    </g>
    <g transform="translate(0,30)" s:x="0" s:y="10" s:pid="in0" id="port_$auto$ff.cc:266:slice$125~D">
      <text x="-3" y="-4" class="inputPortLabel cell_$auto$ff.cc:266:slice$125">D</text>
    </g>
    <g transform="translate(0,50)" s:x="0" s:y="10" s:pid="in0" id="port_$auto$ff.cc:266:slice$125~EN">
      <text x="-3" y="-4" class="inputPortLabel cell_$auto$ff.cc:266:slice$125">EN</text>
    </g>
    <g transform="translate(0,70)" s:x="0" s:y="10" s:pid="in0" id="port_$auto$ff.cc:266:slice$125~SRST">
      <text x="-3" y="-4" class="inputPortLabel cell_$auto$ff.cc:266:slice$125">SRST</text>
    </g>
    <g transform="translate(30,10)" s:x="30" s:y="10" s:pid="out0" id="port_$auto$ff.cc:266:slice$125~Q">
      <text x="5" y="-4" style="fill:#000; stroke:none" class="cell_$auto$ff.cc:266:slice$125">Q</text>
    </g>
  </g>
  <g s:type="generic" transform="translate(754,22)" s:width="30" s:height="40" id="cell_$auto$ff.cc:266:slice$126">
    <text x="15" y="-4" class="nodelabel cell_$auto$ff.cc:266:slice$126" s:attribute="ref">$dffe</text>
    <rect width="30" height="60" s:generic="body" class="cell_$auto$ff.cc:266:slice$126"/>
    <g transform="translate(0,10)" s:x="0" s:y="10" s:pid="in0" id="port_$auto$ff.cc:266:slice$126~CLK">
      <text x="-3" y="-4" class="inputPortLabel cell_$auto$ff.cc:266:slice$126">CLK</text>
    </g>
    <g transform="translate(0,30)" s:x="0" s:y="10" s:pid="in0" id="port_$auto$ff.cc:266:slice$126~D">
      <text x="-3" y="-4" class="inputPortLabel cell_$auto$ff.cc:266:slice$126">D</text>
    </g>
    <g transform="translate(0,50)" s:x="0" s:y="10" s:pid="in0" id="port_$auto$ff.cc:266:slice$126~EN">
      <text x="-3" y="-4" class="inputPortLabel cell_$auto$ff.cc:266:slice$126">EN</text>
    </g>
    <g transform="translate(30,10)" s:x="30" s:y="10" s:pid="out0" id="port_$auto$ff.cc:266:slice$126~Q">
      <text x="5" y="-4" style="fill:#000; stroke:none" class="cell_$auto$ff.cc:266:slice$126">Q</text>
    </g>
  </g>
  <g s:type="generic" transform="translate(123,860.5)" s:width="30" s:height="40" id="cell_$auto$ff.cc:266:slice$127">
    <text x="15" y="-4" class="nodelabel cell_$auto$ff.cc:266:slice$127" s:attribute="ref">$sdffe</text>
    <rect width="30" height="80" s:generic="body" class="cell_$auto$ff.cc:266:slice$127"/>
    <g transform="translate(0,10)" s:x="0" s:y="10" s:pid="in0" id="port_$auto$ff.cc:266:slice$127~CLK">
      <text x="-3" y="-4" class="inputPortLabel cell_$auto$ff.cc:266:slice$127">CLK</text>
    </g>
    <g transform="translate(0,30)" s:x="0" s:y="10" s:pid="in0" id="port_$auto$ff.cc:266:slice$127~D">
      <text x="-3" y="-4" class="inputPortLabel cell_$auto$ff.cc:266:slice$127">D</text>
    </g>
    <g transform="translate(0,50)" s:x="0" s:y="10" s:pid="in0" id="port_$auto$ff.cc:266:slice$127~EN">
      <text x="-3" y="-4" class="inputPortLabel cell_$auto$ff.cc:266:slice$127">EN</text>
    </g>
    <g transform="translate(0,70)" s:x="0" s:y="10" s:pid="in0" id="port_$auto$ff.cc:266:slice$127~SRST">
      <text x="-3" y="-4" class="inputPortLabel cell_$auto$ff.cc:266:slice$127">SRST</text>
    </g>
    <g transform="translate(30,10)" s:x="30" s:y="10" s:pid="out0" id="port_$auto$ff.cc:266:slice$127~Q">
      <text x="5" y="-4" style="fill:#000; stroke:none" class="cell_$auto$ff.cc:266:slice$127">Q</text>
    </g>
  </g>
  <g s:type="generic" transform="translate(1156,964.5)" s:width="30" s:height="40" id="cell_$auto$opt_dff.cc:195:make_patterns_logic$129">
    <text x="15" y="-4" class="nodelabel cell_$auto$opt_dff.cc:195:make_patterns_logic$129" s:attribute="ref">$reduce_bool</text>
    <rect width="30" height="20" s:generic="body" class="cell_$auto$opt_dff.cc:195:make_patterns_logic$129"/>
    <g transform="translate(0,10)" s:x="0" s:y="10" s:pid="in0" id="port_$auto$opt_dff.cc:195:make_patterns_logic$129~A">
      <text x="-3" y="-4" class="inputPortLabel cell_$auto$opt_dff.cc:195:make_patterns_logic$129">A</text>
    </g>
    <g transform="translate(30,10)" s:x="30" s:y="10" s:pid="out0" id="port_$auto$opt_dff.cc:195:make_patterns_logic$129~Y">
      <text x="5" y="-4" style="fill:#000; stroke:none" class="cell_$auto$opt_dff.cc:195:make_patterns_logic$129">Y</text>
    </g>
  </g>
  <g s:type="not" transform="translate(804.5,1057)" s:width="30" s:height="20" id="cell_$auto$opt_dff.cc:250:combine_resets$120">
    <s:alias val="$_NOT_"/>
    <s:alias val="$not"/>
    <s:alias val="$logic_not"/>
    <path d="M0,0 L0,20 L20,10 Z" class="cell_$auto$opt_dff.cc:250:combine_resets$120"/>
    <circle cx="23" cy="10" r="3" class="cell_$auto$opt_dff.cc:250:combine_resets$120"/>
    <g s:x="0" s:y="10" s:pid="A"/>
    <g s:x="25" s:y="10" s:pid="Y"/>
  </g>
  <g s:type="generic" transform="translate(1174,1066.5)" s:width="30" s:height="40" id="cell_$auto$opt_dff.cc:254:combine_resets$123">
    <text x="15" y="-4" class="nodelabel cell_$auto$opt_dff.cc:254:combine_resets$123" s:attribute="ref">$reduce_or</text>
    <rect width="30" height="20" s:generic="body" class="cell_$auto$opt_dff.cc:254:combine_resets$123"/>
    <g transform="translate(0,10)" s:x="0" s:y="10" s:pid="in0" id="port_$auto$opt_dff.cc:254:combine_resets$123~A">
      <text x="-3" y="-4" class="inputPortLabel cell_$auto$opt_dff.cc:254:combine_resets$123">A</text>
    </g>
    <g transform="translate(30,10)" s:x="30" s:y="10" s:pid="out0" id="port_$auto$opt_dff.cc:254:combine_resets$123~Y">
      <text x="5" y="-4" style="fill:#000; stroke:none" class="cell_$auto$opt_dff.cc:254:combine_resets$123">Y</text>
    </g>
  </g>
  <g s:type="eq" transform="translate(524.6666666666666,489)" s:width="25" s:height="25" id="cell_$eq$rtl/uart.v:219$43">
    <s:alias val="$eq"/>
    <circle r="12.5" cx="12.5" cy="12.5" class="cell_$eq$rtl/uart.v:219$43"/>
    <line x1="7.5" x2="17.5" y1="10" y2="10" class="cell_$eq$rtl/uart.v:219$43"/>
    <line x1="7.5" x2="17.5" y1="15" y2="15" class="cell_$eq$rtl/uart.v:219$43"/>
    <g s:x="3" s:y="5" s:pid="A"/>
    <g s:x="3" s:y="20" s:pid="B"/>
    <g s:x="25" s:y="12.5" s:pid="Y"/>
  </g>
  <g s:type="eq" transform="translate(638.6666666666666,343)" s:width="25" s:height="25" id="cell_$eq$rtl/uart.v:220$44">
    <s:alias val="$eq"/>
    <circle r="12.5" cx="12.5" cy="12.5" class="cell_$eq$rtl/uart.v:220$44"/>
    <line x1="7.5" x2="17.5" y1="10" y2="10" class="cell_$eq$rtl/uart.v:220$44"/>
    <line x1="7.5" x2="17.5" y1="15" y2="15" class="cell_$eq$rtl/uart.v:220$44"/>
    <g s:x="3" s:y="5" s:pid="A"/>
    <g s:x="3" s:y="20" s:pid="B"/>
    <g s:x="25" s:y="12.5" s:pid="Y"/>
  </g>
  <g s:type="ge" transform="translate(371.3333333333333,45)" s:width="25" s:height="25" id="cell_$ge$rtl/uart.v:232$46">
    <s:alias val="$ge"/>
    <circle r="12.5" cx="12.5" cy="12.5" class="cell_$ge$rtl/uart.v:232$46"/>
    <line x1="7.5" x2="17.5" y1="7.5" y2="12.5" class="cell_$ge$rtl/uart.v:232$46"/>
    <line x1="7.5" x2="17.5" y1="17.5" y2="12.5" class="cell_$ge$rtl/uart.v:232$46"/>
    <line x1="7.5" x2="17.5" y1="20" y2="15" class="cell_$ge$rtl/uart.v:232$46"/>
    <g s:x="3" s:y="5" s:pid="A"/>
    <g s:x="3" s:y="20" s:pid="B"/>
    <g s:x="25" s:y="12.5" s:pid="Y"/>
  </g>
  <g s:type="gt" transform="translate(789.3333333333334,1297)" s:width="25" s:height="25" id="cell_$gt$rtl/uart.v:267$73">
    <s:alias val="$gt"/>
    <circle r="12.5" cx="12.5" cy="12.5" class="cell_$gt$rtl/uart.v:267$73"/>
    <line x1="7.5" x2="17.5" y1="7.5" y2="12.5" class="cell_$gt$rtl/uart.v:267$73"/>
    <line x1="7.5" x2="17.5" y1="17.5" y2="12.5" class="cell_$gt$rtl/uart.v:267$73"/>
    <g s:x="3" s:y="5" s:pid="A"/>
    <g s:x="3" s:y="20" s:pid="B"/>
    <g s:x="25" s:y="12.5" s:pid="Y"/>
  </g>
  <g s:type="and" transform="translate(523,52.5)" s:width="30" s:height="25" id="cell_$logic_and$rtl/uart.v:232$48">
    <s:alias val="$and"/>
    <s:alias val="$logic_and"/>
    <s:alias val="$_AND_"/>
    <path d="M0,0 L0,25 L15,25 A15 12.5 0 0 0 15,0 Z" class="cell_$logic_and$rtl/uart.v:232$48"/>
    <g s:x="0" s:y="5" s:pid="A"/>
    <g s:x="0" s:y="20" s:pid="B"/>
    <g s:x="30" s:y="12.5" s:pid="Y"/>
  </g>
  <g s:type="and" transform="translate(637,60)" s:width="30" s:height="25" id="cell_$logic_and$rtl/uart.v:232$49">
    <s:alias val="$and"/>
    <s:alias val="$logic_and"/>
    <s:alias val="$_AND_"/>
    <path d="M0,0 L0,25 L15,25 A15 12.5 0 0 0 15,0 Z" class="cell_$logic_and$rtl/uart.v:232$49"/>
    <g s:x="0" s:y="5" s:pid="A"/>
    <g s:x="0" s:y="20" s:pid="B"/>
    <g s:x="30" s:y="12.5" s:pid="Y"/>
  </g>
  <g s:type="or" transform="translate(637,1104.5)" s:width="30" s:height="25" id="cell_$logic_or$rtl/uart.v:248$55">
    <s:alias val="$or"/>
    <s:alias val="$logic_or"/>
    <s:alias val="$_OR_"/>
    <path d="M0,25 L0,25 L15,25 A15 12.5 0 0 0 15,0 L0,0" class="cell_$logic_or$rtl/uart.v:248$55"/>
    <path d="M0,0 A30 25 0 0 1 0,25" class="cell_$logic_or$rtl/uart.v:248$55"/>
    <g s:x="3" s:y="5" s:pid="A"/>
    <g s:x="3" s:y="20" s:pid="B"/>
    <g s:x="30" s:y="12.5" s:pid="Y"/>
  </g>
  <g s:type="or" transform="translate(787.6666666666666,1112)" s:width="30" s:height="25" id="cell_$logic_or$rtl/uart.v:248$57">
    <s:alias val="$or"/>
    <s:alias val="$logic_or"/>
    <s:alias val="$_OR_"/>
    <path d="M0,25 L0,25 L15,25 A15 12.5 0 0 0 15,0 L0,0" class="cell_$logic_or$rtl/uart.v:248$57"/>
    <path d="M0,0 A30 25 0 0 1 0,25" class="cell_$logic_or$rtl/uart.v:248$57"/>
    <g s:x="3" s:y="5" s:pid="A"/>
    <g s:x="3" s:y="20" s:pid="B"/>
    <g s:x="30" s:y="12.5" s:pid="Y"/>
  </g>
  <g s:type="lt" transform="translate(371.3333333333333,105)" s:width="25" s:height="25" id="cell_$lt$rtl/uart.v:232$47">
    <s:alias val="$lt"/>
    <circle r="12.5" cx="12.5" cy="12.5" class="cell_$lt$rtl/uart.v:232$47"/>
    <line x1="7.5" x2="17.5" y1="12.5" y2="7.5" class="cell_$lt$rtl/uart.v:232$47"/>
    <line x1="7.5" x2="17.5" y1="12.5" y2="17.5" class="cell_$lt$rtl/uart.v:232$47"/>
    <g s:x="3" s:y="5" s:pid="A"/>
    <g s:x="3" s:y="20" s:pid="B"/>
    <g s:x="25" s:y="12.5" s:pid="Y"/>
  </g>
  <g s:type="mux" transform="translate(1174,775)" s:width="20" s:height="40" id="cell_$procmux$83">
    <s:alias val="$pmux"/>
    <s:alias val="$mux"/>
    <s:alias val="$_MUX_"/>
    <path d="M0,0 L20,10 L20,30 L0,40 Z" class="cell_$procmux$83"/>
    <g s:x="0" s:y="10" s:pid="A"/>
    <g s:x="0" s:y="30" s:pid="B"/>
    <g s:x="10" s:y="35" s:pid="S"/>
    <g s:x="20" s:y="20" s:pid="Y"/>
  </g>
  <g s:type="eq" transform="translate(638.6666666666666,897)" s:width="25" s:height="25" id="cell_$procmux$84_CMP0">
    <s:alias val="$eq"/>
    <circle r="12.5" cx="12.5" cy="12.5" class="cell_$procmux$84_CMP0"/>
    <line x1="7.5" x2="17.5" y1="10" y2="10" class="cell_$procmux$84_CMP0"/>
    <line x1="7.5" x2="17.5" y1="15" y2="15" class="cell_$procmux$84_CMP0"/>
    <g s:x="3" s:y="5" s:pid="A"/>
    <g s:x="3" s:y="20" s:pid="B"/>
    <g s:x="25" s:y="12.5" s:pid="Y"/>
  </g>
  <g s:type="eq" transform="translate(789.3333333333334,866)" s:width="25" s:height="25" id="cell_$procmux$85_CMP0">
    <s:alias val="$eq"/>
    <circle r="12.5" cx="12.5" cy="12.5" class="cell_$procmux$85_CMP0"/>
    <line x1="7.5" x2="17.5" y1="10" y2="10" class="cell_$procmux$85_CMP0"/>
    <line x1="7.5" x2="17.5" y1="15" y2="15" class="cell_$procmux$85_CMP0"/>
    <g s:x="3" s:y="5" s:pid="A"/>
    <g s:x="3" s:y="20" s:pid="B"/>
    <g s:x="25" s:y="12.5" s:pid="Y"/>
  </g>
  <g s:type="not" transform="translate(523,1034.5)" s:width="30" s:height="20" id="cell_$procmux$86_CMP0">
    <s:alias val="$_NOT_"/>
    <s:alias val="$not"/>
    <s:alias val="$logic_not"/>
    <path d="M0,0 L0,20 L20,10 Z" class="cell_$procmux$86_CMP0"/>
    <circle cx="23" cy="10" r="3" class="cell_$procmux$86_CMP0"/>
    <g s:x="0" s:y="10" s:pid="A"/>
    <g s:x="25" s:y="10" s:pid="Y"/>
  </g>
  <g s:type="mux" transform="translate(791,600)" s:width="20" s:height="40" id="cell_$ternary$rtl/uart.v:224$64">
    <s:alias val="$pmux"/>
    <s:alias val="$mux"/>
    <s:alias val="$_MUX_"/>
    <path d="M0,0 L20,10 L20,30 L0,40 Z" class="cell_$ternary$rtl/uart.v:224$64"/>
    <g s:x="0" s:y="10" s:pid="A"/>
    <g s:x="0" s:y="30" s:pid="B"/>
    <g s:x="10" s:y="35" s:pid="S"/>
    <g s:x="20" s:y="20" s:pid="Y"/>
  </g>
  <g s:type="mux" transform="translate(640.3333333333334,539)" s:width="20" s:height="40" id="cell_$ternary$rtl/uart.v:225$65">
    <s:alias val="$pmux"/>
    <s:alias val="$mux"/>
    <s:alias val="$_MUX_"/>
    <path d="M0,0 L20,10 L20,30 L0,40 Z" class="cell_$ternary$rtl/uart.v:225$65"/>
    <g s:x="0" s:y="10" s:pid="A"/>
    <g s:x="0" s:y="30" s:pid="B"/>
    <g s:x="10" s:y="35" s:pid="S"/>
    <g s:x="20" s:y="20" s:pid="Y"/>
  </g>
  <g s:type="mux" transform="translate(791,529)" s:width="20" s:height="40" id="cell_$ternary$rtl/uart.v:225$66">
    <s:alias val="$pmux"/>
    <s:alias val="$mux"/>
    <s:alias val="$_MUX_"/>
    <path d="M0,0 L20,10 L20,30 L0,40 Z" class="cell_$ternary$rtl/uart.v:225$66"/>
    <g s:x="0" s:y="10" s:pid="A"/>
    <g s:x="0" s:y="30" s:pid="B"/>
    <g s:x="10" s:y="35" s:pid="S"/>
    <g s:x="20" s:y="20" s:pid="Y"/>
  </g>
  <g s:type="mux" transform="translate(791,389)" s:width="20" s:height="40" id="cell_$ternary$rtl/uart.v:226$67">
    <s:alias val="$pmux"/>
    <s:alias val="$mux"/>
    <s:alias val="$_MUX_"/>
    <path d="M0,0 L20,10 L20,30 L0,40 Z" class="cell_$ternary$rtl/uart.v:226$67"/>
    <g s:x="0" s:y="10" s:pid="A"/>
    <g s:x="0" s:y="30" s:pid="B"/>
    <g s:x="10" s:y="35" s:pid="S"/>
    <g s:x="20" s:y="20" s:pid="Y"/>
  </g>
  <g s:type="mux" transform="translate(1016.5,294)" s:width="20" s:height="40" id="cell_$ternary$rtl/uart.v:227$70">
    <s:alias val="$pmux"/>
    <s:alias val="$mux"/>
    <s:alias val="$_MUX_"/>
    <path d="M0,0 L20,10 L20,30 L0,40 Z" class="cell_$ternary$rtl/uart.v:227$70"/>
    <g s:x="0" s:y="10" s:pid="A"/>
    <g s:x="0" s:y="30" s:pid="B"/>
    <g s:x="10" s:y="35" s:pid="S"/>
    <g s:x="20" s:y="20" s:pid="Y"/>
  </g>
  <g s:type="inputExt" transform="translate(12,338)" s:width="30" s:height="20" id="cell_clk">
    <text x="15" y="-4" class="nodelabel cell_clk" s:attribute="ref">clk</text>
    <s:alias val="$_inputExt_"/>
    <path d="M0,0 L0,20 L15,20 L30,10 L15,0 Z" class="cell_clk"/>
    <g s:x="28" s:y="10" s:pid="Y"/>
  </g>
  <g s:type="inputExt" transform="translate(12,1057)" s:width="30" s:height="20" id="cell_resetn">
    <text x="15" y="-4" class="nodelabel cell_resetn" s:attribute="ref">resetn</text>
    <s:alias val="$_inputExt_"/>
    <path d="M0,0 L0,20 L15,20 L30,10 L15,0 Z" class="cell_resetn"/>
    <g s:x="28" s:y="10" s:pid="Y"/>
  </g>
  <g s:type="inputExt" transform="translate(754,1191.5)" s:width="30" s:height="20" id="cell_uart_rxd">
    <text x="15" y="-4" class="nodelabel cell_uart_rxd" s:attribute="ref">uart_rxd</text>
    <s:alias val="$_inputExt_"/>
    <path d="M0,0 L0,20 L15,20 L30,10 L15,0 Z" class="cell_uart_rxd"/>
    <g s:x="28" s:y="10" s:pid="Y"/>
  </g>
  <g s:type="outputExt" transform="translate(1174,1276)" s:width="30" s:height="20" id="cell_uart_rts">
    <text x="15" y="-4" class="nodelabel cell_uart_rts" s:attribute="ref">uart_rts</text>
    <s:alias val="$_outputExt_"/>
    <path d="M30,0 L30,20 L15,20 L0,10 L15,0 Z" class="cell_uart_rts"/>
    <g s:x="0" s:y="10" s:pid="A"/>
  </g>
  <g s:type="inputExt" transform="translate(623,465)" s:width="30" s:height="20" id="cell_uart_rx_read">
    <text x="15" y="-4" class="nodelabel cell_uart_rx_read" s:attribute="ref">uart_rx_read</text>
    <s:alias val="$_inputExt_"/>
    <path d="M0,0 L0,20 L15,20 L30,10 L15,0 Z" class="cell_uart_rx_read"/>
    <g s:x="28" s:y="10" s:pid="Y"/>
  </g>
  <g s:type="outputExt" transform="translate(1174,899.5)" s:width="30" s:height="20" id="cell_uart_rx_valid">
    <text x="15" y="-4" class="nodelabel cell_uart_rx_valid" s:attribute="ref">uart_rx_valid</text>
    <s:alias val="$_outputExt_"/>
    <path d="M30,0 L30,20 L15,20 L0,10 L15,0 Z" class="cell_uart_rx_valid"/>
    <g s:x="0" s:y="10" s:pid="A"/>
  </g>
  <g s:type="outputExt" transform="translate(1174,22.5)" s:width="30" s:height="20" id="cell_uart_rx_data">
    <text x="15" y="-4" class="nodelabel cell_uart_rx_data" s:attribute="ref">uart_rx_data</text>
    <s:alias val="$_outputExt_"/>
    <path d="M30,0 L30,20 L15,20 L0,10 L15,0 Z" class="cell_uart_rx_data"/>
    <g s:x="0" s:y="10" s:pid="A"/>
  </g>
  <g s:type="constant" transform="translate(623,685)" s:width="30" s:height="20" id="cell_1">
    <text x="15" y="-4" class="nodelabel cell_1" s:attribute="ref">1</text>
    <s:alias val="$_constant_"/>
    <rect width="30" height="20" class="cell_1"/>
    <g s:x="30" s:y="10" s:pid="Y"/>
  </g>
  <g s:type="constant" transform="translate(338,499)" s:width="30" s:height="20" id="cell_1010001011000">
    <text x="15" y="-4" class="nodelabel cell_1010001011000" s:attribute="ref">0x1458</text>
    <s:alias val="$_constant_"/>
    <rect width="30" height="20" class="cell_1010001011000"/>
    <g s:x="30" s:y="10" s:pid="Y"/>
  </g>
  <g s:type="constant" transform="translate(523,369)" s:width="30" s:height="20" id="cell_101000101100">
    <text x="15" y="-4" class="nodelabel cell_101000101100" s:attribute="ref">0xa2c</text>
    <s:alias val="$_constant_"/>
    <rect width="30" height="20" class="cell_101000101100"/>
    <g s:x="30" s:y="10" s:pid="Y"/>
  </g>
  <g s:type="constant" transform="translate(123,55)" s:width="30" s:height="20" id="cell_10">
    <text x="15" y="-4" class="nodelabel cell_10" s:attribute="ref">10</text>
    <s:alias val="$_constant_"/>
    <rect width="30" height="20" class="cell_10"/>
    <g s:x="30" s:y="10" s:pid="Y"/>
  </g>
  <g s:type="constant" transform="translate(123,589)" s:width="30" s:height="20" id="cell_1010">
    <text x="15" y="-4" class="nodelabel cell_1010" s:attribute="ref">0xa</text>
    <s:alias val="$_constant_"/>
    <rect width="30" height="20" class="cell_1010"/>
    <g s:x="30" s:y="10" s:pid="Y"/>
  </g>
  <g s:type="constant" transform="translate(754,735)" s:width="30" s:height="20" id="cell_000">
    <text x="15" y="-4" class="nodelabel cell_000" s:attribute="ref">000</text>
    <s:alias val="$_constant_"/>
    <rect width="30" height="20" class="cell_000"/>
    <g s:x="30" s:y="10" s:pid="Y"/>
  </g>
  <g s:type="constant" transform="translate(523,559)" s:width="30" s:height="20" id="cell_1011">
    <text x="15" y="-4" class="nodelabel cell_1011" s:attribute="ref">0xb</text>
    <s:alias val="$_constant_"/>
    <rect width="30" height="20" class="cell_1011"/>
    <g s:x="30" s:y="10" s:pid="Y"/>
  </g>
  <g s:type="constant" transform="translate(623,620)" s:width="30" s:height="20" id="cell_0">
    <text x="15" y="-4" class="nodelabel cell_0" s:attribute="ref">0</text>
    <s:alias val="$_constant_"/>
    <rect width="30" height="20" class="cell_0"/>
    <g s:x="30" s:y="10" s:pid="Y"/>
  </g>
  <g s:type="constant" transform="translate(523,434)" s:width="30" s:height="20" id="cell_0000">
    <text x="15" y="-4" class="nodelabel cell_0000" s:attribute="ref">0x0</text>
    <s:alias val="$_constant_"/>
    <rect width="30" height="20" class="cell_0000"/>
    <g s:x="30" s:y="10" s:pid="Y"/>
  </g>
  <g s:type="join" transform="translate(1004.3333333333334,1160)" s:width="4" s:height="40" id="cell_$join$,52,4,">
    <rect width="5" height="40" class="splitjoinBody" s:generic="body"/>
    <s:alias val="$_join_"/>
    <g s:x="5" s:y="20" s:pid="out"/>
    <g transform="translate(0,10)" s:x="0" s:y="10" s:pid="in0">
      <text x="-3" y="-4" class="inputPortLabel">0</text>
    </g>
    <g transform="translate(0,30)" s:x="0" s:y="10" s:pid="in0">
      <text x="-3" y="-4" class="inputPortLabel">1</text>
    </g>
  </g>
  <g s:type="join" transform="translate(1174,107)" s:width="4" s:height="40" id="cell_$join$,9,10,11,12,13,14,15,57,">
    <rect width="5" height="40" class="splitjoinBody" s:generic="body"/>
    <s:alias val="$_join_"/>
    <g s:x="5" s:y="20" s:pid="out"/>
    <g transform="translate(0,10)" s:x="0" s:y="10" s:pid="in0">
      <text x="-3" y="-4" class="inputPortLabel">0:6</text>
    </g>
    <g transform="translate(0,30)" s:x="0" s:y="10" s:pid="in0">
      <text x="-3" y="-4" class="inputPortLabel">7</text>
    </g>
  </g>
  <g s:type="join" transform="translate(994.25,954.5)" s:width="4" s:height="40" id="cell_$join$,64,7,65,66,">
    <rect width="5" height="80" class="splitjoinBody" s:generic="body"/>
    <s:alias val="$_join_"/>
    <g s:x="5" s:y="20" s:pid="out"/>
    <g transform="translate(0,10)" s:x="0" s:y="10" s:pid="in0">
      <text x="-3" y="-4" class="inputPortLabel">0</text>
    </g>
    <g transform="translate(0,30)" s:x="0" s:y="10" s:pid="in0">
      <text x="-3" y="-4" class="inputPortLabel">1</text>
    </g>
    <g transform="translate(0,50)" s:x="0" s:y="10" s:pid="in0">
      <text x="-3" y="-4" class="inputPortLabel">2</text>
    </g>
    <g transform="translate(0,70)" s:x="0" s:y="10" s:pid="in0">
      <text x="-3" y="-4" class="inputPortLabel">3</text>
    </g>
  </g>
  <g s:type="join" transform="translate(1004.3333333333334,1056.5)" s:width="4" s:height="40" id="cell_$join$,67,68,">
    <rect width="5" height="40" class="splitjoinBody" s:generic="body"/>
    <s:alias val="$_join_"/>
    <g s:x="5" s:y="20" s:pid="out"/>
    <g transform="translate(0,10)" s:x="0" s:y="10" s:pid="in0">
      <text x="-3" y="-4" class="inputPortLabel">0</text>
    </g>
    <g transform="translate(0,30)" s:x="0" s:y="10" s:pid="in0">
      <text x="-3" y="-4" class="inputPortLabel">1</text>
    </g>
  </g>
  <g s:type="join" transform="translate(994.25,398.5)" s:width="4" s:height="40" id="cell_$join$,77,78,79,80,81,82,83,84,85,124,125,126,">
    <rect width="5" height="80" class="splitjoinBody" s:generic="body"/>
    <s:alias val="$_join_"/>
    <g s:x="5" s:y="20" s:pid="out"/>
    <g transform="translate(0,10)" s:x="0" s:y="10" s:pid="in0">
      <text x="-3" y="-4" class="inputPortLabel">0:3</text>
    </g>
    <g transform="translate(0,30)" s:x="0" s:y="10" s:pid="in0">
      <text x="-3" y="-4" class="inputPortLabel">4:7</text>
    </g>
    <g transform="translate(0,50)" s:x="0" s:y="10" s:pid="in0">
      <text x="-3" y="-4" class="inputPortLabel">8</text>
    </g>
    <g transform="translate(0,70)" s:x="0" s:y="10" s:pid="in0">
      <text x="-3" y="-4" class="inputPortLabel">9:11</text>
    </g>
  </g>
  <g s:type="join" transform="translate(994.25,804.5)" s:width="4" s:height="40" id="cell_$join$,7,64,66,">
    <rect width="5" height="60" class="splitjoinBody" s:generic="body"/>
    <s:alias val="$_join_"/>
    <g s:x="5" s:y="20" s:pid="out"/>
    <g transform="translate(0,10)" s:x="0" s:y="10" s:pid="in0">
      <text x="-3" y="-4" class="inputPortLabel">0</text>
    </g>
    <g transform="translate(0,30)" s:x="0" s:y="10" s:pid="in0">
      <text x="-3" y="-4" class="inputPortLabel">1</text>
    </g>
    <g transform="translate(0,50)" s:x="0" s:y="10" s:pid="in0">
      <text x="-3" y="-4" class="inputPortLabel">2</text>
    </g>
  </g>
  <g s:type="split" transform="translate(541,778)" s:width="5" s:height="40" id="cell_$split$,53,52,">
    <rect width="5" height="40" class="splitjoinBody" s:generic="body"/>
    <s:alias val="$_split_"/>
    <g s:x="0" s:y="20" s:pid="in"/>
    <g transform="translate(4,10)" s:x="4" s:y="10" s:pid="out0">
      <text x="5" y="-4">1</text>
    </g>
    <g transform="translate(4,30)" s:x="4" s:y="10" s:pid="out0">
      <text x="5" y="-4">0</text>
    </g>
  </g>
  <g s:type="split" transform="translate(989,107)" s:width="5" s:height="40" id="cell_$split$,8,9,10,11,12,13,14,15,">
    <rect width="5" height="20" class="splitjoinBody" s:generic="body"/>
    <s:alias val="$_split_"/>
    <g s:x="0" s:y="20" s:pid="in"/>
    <g transform="translate(4,10)" s:x="4" s:y="10" s:pid="out0">
      <text x="5" y="-4">1:7</text>
    </g>
  </g>
  <line x1="154" x2="283" y1="871" y2="871" class="net_16,17,18,19"/>
  <line x1="283" x2="283" y1="871" y2="316.5" class="net_16,17,18,19"/>
  <circle cx="283" cy="871" r="2" style="fill:#000" class="net_16,17,18,19"/>
  <circle cx="283" cy="316.5" r="2" style="fill:#000" class="net_16,17,18,19"/>
  <line x1="283" x2="792.3333333333334" y1="316.5" y2="316.5" class="net_16,17,18,19"/>
  <line x1="154" x2="283" y1="871" y2="871" class="net_16,17,18,19"/>
  <line x1="283" x2="283" y1="871" y2="50" class="net_16,17,18,19"/>
  <line x1="283" x2="374.3333333333333" y1="50" y2="50" class="net_16,17,18,19"/>
  <line x1="154" x2="283" y1="871" y2="871" class="net_16,17,18,19"/>
  <line x1="283" x2="283" y1="871" y2="1302" class="net_16,17,18,19"/>
  <line x1="283" x2="792.3333333333334" y1="1302" y2="1302" class="net_16,17,18,19"/>
  <line x1="154" x2="283" y1="871" y2="871" class="net_16,17,18,19"/>
  <line x1="283" x2="283" y1="871" y2="110" class="net_16,17,18,19"/>
  <circle cx="283" cy="110" r="2" style="fill:#000" class="net_16,17,18,19"/>
  <line x1="283" x2="374.3333333333333" y1="110" y2="110" class="net_16,17,18,19"/>
  <line x1="154" x2="283" y1="871" y2="871" class="net_16,17,18,19"/>
  <line x1="283" x2="283" y1="871" y2="902" class="net_16,17,18,19"/>
  <circle cx="283" cy="902" r="2" style="fill:#000" class="net_16,17,18,19"/>
  <line x1="283" x2="641.6666666666666" y1="902" y2="902" class="net_16,17,18,19"/>
  <line x1="154" x2="792.3333333333334" y1="871" y2="871" class="net_16,17,18,19"/>
  <line x1="154" x2="283" y1="871" y2="871" class="net_16,17,18,19"/>
  <line x1="283" x2="283" y1="871" y2="902" class="net_16,17,18,19"/>
  <line x1="283" x2="508" y1="902" y2="902" class="net_16,17,18,19"/>
  <line x1="508" x2="508" y1="902" y2="1044.5" class="net_16,17,18,19"/>
  <circle cx="508" cy="902" r="2" style="fill:#000" class="net_16,17,18,19"/>
  <line x1="508" x2="523" y1="1044.5" y2="1044.5" class="net_16,17,18,19"/>
  <line x1="653" x2="715" y1="695" y2="695" class="net_90"/>
  <line x1="715" x2="715" y1="695" y2="331.5" class="net_90"/>
  <circle cx="715" cy="695" r="2" style="fill:#000" class="net_90"/>
  <circle cx="715" cy="331.5" r="2" style="fill:#000" class="net_90"/>
  <line x1="715" x2="792.3333333333334" y1="331.5" y2="331.5" class="net_90"/>
  <line x1="653" x2="715" y1="695" y2="695" class="net_90"/>
  <line x1="715" x2="715" y1="695" y2="283" class="net_90"/>
  <line x1="715" x2="1177" y1="283" y2="283" class="net_90"/>
  <line x1="653" x2="715" y1="695" y2="695" class="net_90"/>
  <line x1="715" x2="715" y1="695" y2="1317" class="net_90"/>
  <line x1="715" x2="792.3333333333334" y1="1317" y2="1317" class="net_90"/>
  <line x1="653" x2="715" y1="695" y2="695" class="net_90"/>
  <line x1="715" x2="715" y1="695" y2="610" class="net_90"/>
  <circle cx="715" cy="610" r="2" style="fill:#000" class="net_90"/>
  <line x1="715" x2="791" y1="610" y2="610" class="net_90"/>
  <line x1="369" x2="498" y1="348" y2="348" class="net_24,25,26,27,28,29,30,31,32,33,34,35,36,37"/>
  <line x1="498" x2="498" y1="348" y2="268" class="net_24,25,26,27,28,29,30,31,32,33,34,35,36,37"/>
  <circle cx="498" cy="348" r="2" style="fill:#000" class="net_24,25,26,27,28,29,30,31,32,33,34,35,36,37"/>
  <line x1="498" x2="1177" y1="268" y2="268" class="net_24,25,26,27,28,29,30,31,32,33,34,35,36,37"/>
  <line x1="369" x2="498" y1="348" y2="348" class="net_24,25,26,27,28,29,30,31,32,33,34,35,36,37"/>
  <line x1="498" x2="498" y1="348" y2="494" class="net_24,25,26,27,28,29,30,31,32,33,34,35,36,37"/>
  <line x1="498" x2="527.6666666666666" y1="494" y2="494" class="net_24,25,26,27,28,29,30,31,32,33,34,35,36,37"/>
  <line x1="369" x2="641.6666666666666" y1="348" y2="348" class="net_24,25,26,27,28,29,30,31,32,33,34,35,36,37"/>
  <line x1="40" x2="58" y1="348" y2="348" class="net_2"/>
  <line x1="58" x2="58" y1="348" y2="1147" class="net_2"/>
  <circle cx="58" cy="348" r="2" style="fill:#000" class="net_2"/>
  <circle cx="58" cy="1147" r="2" style="fill:#000" class="net_2"/>
  <line x1="58" x2="1174" y1="1147" y2="1147" class="net_2"/>
  <line x1="40" x2="58" y1="348" y2="348" class="net_2"/>
  <line x1="58" x2="58" y1="348" y2="1286" class="net_2"/>
  <line x1="58" x2="964" y1="1286" y2="1286" class="net_2"/>
  <line x1="40" x2="338" y1="348" y2="348" class="net_2"/>
  <line x1="40" x2="58" y1="348" y2="348" class="net_2"/>
  <line x1="58" x2="58" y1="348" y2="170.5" class="net_2"/>
  <circle cx="58" cy="170.5" r="2" style="fill:#000" class="net_2"/>
  <line x1="58" x2="964" y1="170.5" y2="170.5" class="net_2"/>
  <line x1="40" x2="58" y1="348" y2="348" class="net_2"/>
  <line x1="58" x2="58" y1="348" y2="32.5" class="net_2"/>
  <line x1="58" x2="754" y1="32.5" y2="32.5" class="net_2"/>
  <line x1="40" x2="58" y1="348" y2="348" class="net_2"/>
  <line x1="58" x2="58" y1="348" y2="871" class="net_2"/>
  <circle cx="58" cy="871" r="2" style="fill:#000" class="net_2"/>
  <line x1="58" x2="123" y1="871" y2="871" class="net_2"/>
  <line x1="1010.3333333333334" x2="1124" y1="1180.5" y2="1180.5" class="net_52,4"/>
  <line x1="1124" x2="1124" y1="1180.5" y2="1167" class="net_52,4"/>
  <line x1="1124" x2="1174" y1="1167" y2="1167" class="net_52,4"/>
  <line x1="40" x2="88" y1="1067" y2="1067" class="net_3"/>
  <line x1="88" x2="88" y1="1067" y2="1221.5" class="net_3"/>
  <line x1="88" x2="1124" y1="1221.5" y2="1221.5" class="net_3"/>
  <line x1="1124" x2="1124" y1="1221.5" y2="1187" class="net_3"/>
  <circle cx="88" cy="1067" r="2" style="fill:#000" class="net_3"/>
  <circle cx="88" cy="1221.5" r="2" style="fill:#000" class="net_3"/>
  <line x1="1124" x2="1174" y1="1187" y2="1187" class="net_3"/>
  <line x1="40" x2="88" y1="1067" y2="1067" class="net_3"/>
  <line x1="88" x2="88" y1="1067" y2="1332" class="net_3"/>
  <line x1="88" x2="914" y1="1332" y2="1332" class="net_3"/>
  <line x1="914" x2="914" y1="1332" y2="1326" class="net_3"/>
  <line x1="914" x2="964" y1="1326" y2="1326" class="net_3"/>
  <line x1="40" x2="88" y1="1067" y2="1067" class="net_3"/>
  <line x1="88" x2="88" y1="1067" y2="230.5" class="net_3"/>
  <line x1="88" x2="964" y1="230.5" y2="230.5" class="net_3"/>
  <line x1="40" x2="88" y1="1067" y2="1067" class="net_3"/>
  <line x1="88" x2="88" y1="1067" y2="931" class="net_3"/>
  <circle cx="88" cy="931" r="2" style="fill:#000" class="net_3"/>
  <line x1="88" x2="123" y1="931" y2="931" class="net_3"/>
  <line x1="40" x2="804.5" y1="1067" y2="1067" class="net_3"/>
  <line x1="814.3333333333334" x2="914" y1="1309.5" y2="1309.5" class="net_54"/>
  <line x1="914" x2="914" y1="1309.5" y2="1306" class="net_54"/>
  <line x1="914" x2="964" y1="1306" y2="1306" class="net_54"/>
  <line x1="1199" x2="1430" y1="275.5" y2="275.5" class="net_38,39,40,41,42,43,44,45,46,47,48,49,50,51"/>
  <line x1="1430" x2="1430" y1="275.5" y2="253" class="net_38,39,40,41,42,43,44,45,46,47,48,49,50,51"/>
  <line x1="1430" x2="303" y1="253" y2="253" class="net_38,39,40,41,42,43,44,45,46,47,48,49,50,51"/>
  <line x1="303" x2="303" y1="253" y2="368" class="net_38,39,40,41,42,43,44,45,46,47,48,49,50,51"/>
  <line x1="303" x2="338" y1="368" y2="368" class="net_38,39,40,41,42,43,44,45,46,47,48,49,50,51"/>
  <line x1="1205" x2="1460" y1="1077" y2="1077" class="net_55"/>
  <line x1="1460" x2="1460" y1="1077" y2="765" class="net_55"/>
  <line x1="1460" x2="303" y1="765" y2="765" class="net_55"/>
  <line x1="303" x2="303" y1="765" y2="388" class="net_55"/>
  <line x1="303" x2="338" y1="388" y2="388" class="net_55"/>
  <line x1="546" x2="593" y1="808.5" y2="808.5" class="net_53"/>
  <line x1="593" x2="593" y1="808.5" y2="190.5" class="net_53"/>
  <line x1="593" x2="964" y1="190.5" y2="190.5" class="net_53"/>
  <line x1="546" x2="593" y1="808.5" y2="808.5" class="net_53"/>
  <line x1="593" x2="593" y1="808.5" y2="715" class="net_53"/>
  <line x1="593" x2="801" y1="715" y2="715" class="net_53"/>
  <circle cx="593" cy="715" r="2" style="fill:#000" class="net_53"/>
  <line x1="801" x2="801" y1="715" y2="635" class="net_53"/>
  <line x1="546" x2="593" y1="808.5" y2="808.5" class="net_53"/>
  <line x1="593" x2="593" y1="808.5" y2="589" class="net_53"/>
  <line x1="593" x2="650.3333333333334" y1="589" y2="589" class="net_53"/>
  <circle cx="593" cy="589" r="2" style="fill:#000" class="net_53"/>
  <line x1="650.3333333333334" x2="650.3333333333334" y1="589" y2="574" class="net_53"/>
  <line x1="663.6666666666666" x2="705" y1="355.5" y2="355.5" class="net_56"/>
  <line x1="705" x2="705" y1="355.5" y2="210.5" class="net_56"/>
  <circle cx="705" cy="355.5" r="2" style="fill:#000" class="net_56"/>
  <line x1="705" x2="964" y1="210.5" y2="210.5" class="net_56"/>
  <line x1="663.6666666666666" x2="705" y1="355.5" y2="355.5" class="net_56"/>
  <line x1="705" x2="705" y1="355.5" y2="579" class="net_56"/>
  <line x1="705" x2="801" y1="579" y2="579" class="net_56"/>
  <line x1="801" x2="801" y1="579" y2="564" class="net_56"/>
  <line x1="1180" x2="1430" y1="127.5" y2="127.5" class="net_9,10,11,12,13,14,15,57"/>
  <line x1="1430" x2="1430" y1="127.5" y2="95" class="net_9,10,11,12,13,14,15,57"/>
  <line x1="1430" x2="725" y1="95" y2="95" class="net_9,10,11,12,13,14,15,57"/>
  <line x1="725" x2="725" y1="95" y2="52.5" class="net_9,10,11,12,13,14,15,57"/>
  <line x1="725" x2="754" y1="52.5" y2="52.5" class="net_9,10,11,12,13,14,15,57"/>
  <line x1="667" x2="754" y1="72.5" y2="72.5" class="net_58"/>
  <line x1="1194" x2="1450" y1="795" y2="795" class="net_59,60,61,62"/>
  <line x1="1450" x2="1450" y1="795" y2="1254.5" class="net_59,60,61,62"/>
  <line x1="1450" x2="68" y1="1254.5" y2="1254.5" class="net_59,60,61,62"/>
  <line x1="68" x2="68" y1="1254.5" y2="891" class="net_59,60,61,62"/>
  <line x1="68" x2="123" y1="891" y2="891" class="net_59,60,61,62"/>
  <line x1="1187" x2="1440" y1="975" y2="975" class="net_63"/>
  <line x1="1440" x2="1440" y1="975" y2="1243.5" class="net_63"/>
  <line x1="1440" x2="78" y1="1243.5" y2="1243.5" class="net_63"/>
  <line x1="78" x2="78" y1="1243.5" y2="911" class="net_63"/>
  <line x1="78" x2="123" y1="911" y2="911" class="net_63"/>
  <line x1="1000.25" x2="1156" y1="975" y2="975" class="net_64,7,65,66"/>
  <line x1="1010.3333333333334" x2="1174" y1="1077" y2="1077" class="net_67,68"/>
  <line x1="368" x2="527.6666666666666" y1="509" y2="509" class="net_92,93,94,95,96,97,98,99,100,101,102,103,104"/>
  <line x1="553" x2="563" y1="379" y2="379" class="net_105,106,107,108,109,110,111,112,113,114,115,116"/>
  <line x1="563" x2="563" y1="379" y2="363" class="net_105,106,107,108,109,110,111,112,113,114,115,116"/>
  <line x1="563" x2="641.6666666666666" y1="363" y2="363" class="net_105,106,107,108,109,110,111,112,113,114,115,116"/>
  <line x1="153" x2="374.3333333333333" y1="65" y2="65" class="net_117,118"/>
  <line x1="396.3333333333333" x2="523" y1="57.5" y2="57.5" class="net_69"/>
  <line x1="396.3333333333333" x2="498" y1="117.5" y2="117.5" class="net_70"/>
  <line x1="498" x2="498" y1="117.5" y2="72.5" class="net_70"/>
  <line x1="498" x2="523" y1="72.5" y2="72.5" class="net_70"/>
  <line x1="553" x2="637" y1="65" y2="65" class="net_71"/>
  <line x1="549.6666666666666" x2="583" y1="501.5" y2="501.5" class="net_65"/>
  <line x1="583" x2="583" y1="501.5" y2="80" class="net_65"/>
  <circle cx="583" cy="501.5" r="2" style="fill:#000" class="net_65"/>
  <line x1="583" x2="637" y1="80" y2="80" class="net_65"/>
  <line x1="549.6666666666666" x2="583" y1="501.5" y2="501.5" class="net_65"/>
  <line x1="583" x2="583" y1="501.5" y2="1109.5" class="net_65"/>
  <line x1="583" x2="640" y1="1109.5" y2="1109.5" class="net_65"/>
  <line x1="549.6666666666666" x2="583" y1="501.5" y2="501.5" class="net_65"/>
  <line x1="583" x2="583" y1="501.5" y2="378" class="net_65"/>
  <line x1="583" x2="1026.5" y1="378" y2="378" class="net_65"/>
  <circle cx="583" cy="378" r="2" style="fill:#000" class="net_65"/>
  <line x1="1026.5" x2="1026.5" y1="378" y2="329" class="net_65"/>
  <line x1="549.6666666666666" x2="583" y1="501.5" y2="501.5" class="net_65"/>
  <line x1="583" x2="583" y1="501.5" y2="1005" class="net_65"/>
  <circle cx="583" cy="1005" r="2" style="fill:#000" class="net_65"/>
  <line x1="583" x2="994.25" y1="1005" y2="1005" class="net_65"/>
  <line x1="548" x2="573" y1="1044.5" y2="1044.5" class="net_66"/>
  <line x1="573" x2="573" y1="1044.5" y2="1124.5" class="net_66"/>
  <circle cx="573" cy="1044.5" r="2" style="fill:#000" class="net_66"/>
  <line x1="573" x2="640" y1="1124.5" y2="1124.5" class="net_66"/>
  <line x1="548" x2="994.75" y1="1044.5" y2="1044.5" class="net_66"/>
  <line x1="994.75" x2="994.75" y1="1044.5" y2="1025.5" class="net_66"/>
  <line x1="548" x2="573" y1="1044.5" y2="1044.5" class="net_66"/>
  <line x1="573" x2="573" y1="1044.5" y2="855" class="net_66"/>
  <line x1="573" x2="994.25" y1="855" y2="855" class="net_66"/>
  <line x1="667" x2="790.6666666666666" y1="1117" y2="1117" class="net_72"/>
  <line x1="663.6666666666666" x2="725" y1="909.5" y2="909.5" class="net_7"/>
  <line x1="725" x2="725" y1="909.5" y2="1132" class="net_7"/>
  <circle cx="725" cy="909.5" r="2" style="fill:#000" class="net_7"/>
  <line x1="725" x2="790.6666666666666" y1="1132" y2="1132" class="net_7"/>
  <line x1="663.6666666666666" x2="1174" y1="909.5" y2="909.5" class="net_7"/>
  <line x1="663.6666666666666" x2="914" y1="909.5" y2="909.5" class="net_7"/>
  <line x1="914" x2="914" y1="909.5" y2="985" class="net_7"/>
  <circle cx="914" cy="909.5" r="2" style="fill:#000" class="net_7"/>
  <line x1="914" x2="994.25" y1="985" y2="985" class="net_7"/>
  <line x1="663.6666666666666" x2="725" y1="909.5" y2="909.5" class="net_7"/>
  <line x1="725" x2="725" y1="909.5" y2="815" class="net_7"/>
  <line x1="725" x2="994.25" y1="815" y2="815" class="net_7"/>
  <line x1="153" x2="293" y1="599" y2="599" class="net_120,121,122,123"/>
  <line x1="293" x2="293" y1="599" y2="125" class="net_120,121,122,123"/>
  <circle cx="293" cy="599" r="2" style="fill:#000" class="net_120,121,122,123"/>
  <line x1="293" x2="374.3333333333333" y1="125" y2="125" class="net_120,121,122,123"/>
  <line x1="153" x2="293" y1="599" y2="599" class="net_120,121,122,123"/>
  <line x1="293" x2="293" y1="599" y2="886" class="net_120,121,122,123"/>
  <line x1="293" x2="792.3333333333334" y1="886" y2="886" class="net_120,121,122,123"/>
  <line x1="153" x2="725" y1="599" y2="599" class="net_120,121,122,123"/>
  <line x1="725" x2="725" y1="599" y2="539" class="net_120,121,122,123"/>
  <line x1="725" x2="791" y1="539" y2="539" class="net_120,121,122,123"/>
  <line x1="1036.5" x2="1134" y1="314" y2="314" class="net_73,74,75,76"/>
  <line x1="1134" x2="1134" y1="314" y2="785" class="net_73,74,75,76"/>
  <line x1="1134" x2="1174" y1="785" y2="785" class="net_73,74,75,76"/>
  <line x1="1000.25" x2="1124" y1="419" y2="419" class="net_77,78,79,80,81,82,83,84,85,124,125,126"/>
  <line x1="1124" x2="1124" y1="419" y2="805" class="net_77,78,79,80,81,82,83,84,85,124,125,126"/>
  <line x1="1124" x2="1174" y1="805" y2="805" class="net_77,78,79,80,81,82,83,84,85,124,125,126"/>
  <line x1="1000.25" x2="1184" y1="825" y2="825" class="net_7,64,66"/>
  <line x1="1184" x2="1184" y1="825" y2="810" class="net_7,64,66"/>
  <line x1="553" x2="603" y1="569" y2="569" class="net_127,128,129,130"/>
  <line x1="603" x2="603" y1="569" y2="917" class="net_127,128,129,130"/>
  <circle cx="603" cy="569" r="2" style="fill:#000" class="net_127,128,129,130"/>
  <line x1="603" x2="641.6666666666666" y1="917" y2="917" class="net_127,128,129,130"/>
  <line x1="553" x2="640.3333333333334" y1="569" y2="569" class="net_127,128,129,130"/>
  <line x1="553" x2="603" y1="569" y2="569" class="net_127,128,129,130"/>
  <line x1="603" x2="603" y1="569" y2="399" class="net_127,128,129,130"/>
  <line x1="603" x2="791" y1="399" y2="399" class="net_127,128,129,130"/>
  <line x1="653" x2="791" y1="630" y2="630" class="net_136"/>
  <line x1="553" x2="613" y1="444" y2="444" class="net_137,138,139,140"/>
  <line x1="613" x2="613" y1="444" y2="549" class="net_137,138,139,140"/>
  <circle cx="613" cy="444" r="2" style="fill:#000" class="net_137,138,139,140"/>
  <line x1="613" x2="640.3333333333334" y1="549" y2="549" class="net_137,138,139,140"/>
  <line x1="553" x2="725" y1="444" y2="444" class="net_137,138,139,140"/>
  <line x1="725" x2="725" y1="444" y2="419" class="net_137,138,139,140"/>
  <line x1="725" x2="791" y1="419" y2="419" class="net_137,138,139,140"/>
  <line x1="660.3333333333334" x2="791" y1="559" y2="559" class="net_86,87,88,89"/>
  <line x1="651" x2="801" y1="475" y2="475" class="net_6"/>
  <line x1="801" x2="801" y1="475" y2="424" class="net_6"/>
  <line x1="814.3333333333334" x2="1016.5" y1="324" y2="324" class="net_20,21,22,23"/>
  <line x1="995" x2="1174" y1="1286" y2="1286" class="net_5"/>
  <line x1="785" x2="1174" y1="32.5" y2="32.5" class="net_8,9,10,11,12,13,14,15"/>
  <line x1="785" x2="914" y1="32.5" y2="32.5" class="net_8,9,10,11,12,13,14,15"/>
  <line x1="914" x2="914" y1="32.5" y2="140" class="net_8,9,10,11,12,13,14,15"/>
  <line x1="914" x2="989.5" y1="140" y2="140" class="net_8,9,10,11,12,13,14,15"/>
  <circle cx="914" cy="32.5" r="2" style="fill:#000" class="net_8,9,10,11,12,13,14,15"/>
  <line x1="989.5" x2="989.5" y1="140" y2="128" class="net_8,9,10,11,12,13,14,15"/>
  <line x1="546" x2="563" y1="788.5" y2="788.5" class="net_52"/>
  <line x1="563" x2="563" y1="788.5" y2="1170.5" class="net_52"/>
  <line x1="563" x2="1004.3333333333334" y1="1170.5" y2="1170.5" class="net_52"/>
  <line x1="782" x2="914" y1="1201.5" y2="1201.5" class="net_4"/>
  <line x1="914" x2="914" y1="1201.5" y2="1190.5" class="net_4"/>
  <line x1="914" x2="1004.3333333333334" y1="1190.5" y2="1190.5" class="net_4"/>
  <line x1="994" x2="1174" y1="117.5" y2="117.5" class="net_9,10,11,12,13,14,15"/>
  <line x1="995" x2="1124" y1="170.5" y2="170.5" class="net_57"/>
  <line x1="1124" x2="1124" y1="170.5" y2="137.5" class="net_57"/>
  <line x1="1124" x2="1174" y1="137.5" y2="137.5" class="net_57"/>
  <line x1="814.3333333333334" x2="924" y1="878.5" y2="878.5" class="net_64"/>
  <line x1="924" x2="924" y1="878.5" y2="965" class="net_64"/>
  <circle cx="924" cy="878.5" r="2" style="fill:#000" class="net_64"/>
  <line x1="924" x2="994.25" y1="965" y2="965" class="net_64"/>
  <line x1="814.3333333333334" x2="924" y1="878.5" y2="878.5" class="net_64"/>
  <line x1="924" x2="924" y1="878.5" y2="835" class="net_64"/>
  <line x1="924" x2="994.25" y1="835" y2="835" class="net_64"/>
  <line x1="829.5" x2="1004.3333333333334" y1="1067" y2="1067" class="net_67"/>
  <line x1="817.6666666666666" x2="914" y1="1124.5" y2="1124.5" class="net_68"/>
  <line x1="914" x2="914" y1="1124.5" y2="1087" class="net_68"/>
  <line x1="914" x2="1004.3333333333334" y1="1087" y2="1087" class="net_68"/>
  <line x1="811" x2="994.25" y1="409" y2="409" class="net_77,78,79,80"/>
  <line x1="811" x2="914" y1="549" y2="549" class="net_81,82,83,84"/>
  <line x1="914" x2="914" y1="549" y2="429" class="net_81,82,83,84"/>
  <line x1="914" x2="994.25" y1="429" y2="429" class="net_81,82,83,84"/>
  <line x1="811" x2="924" y1="620" y2="620" class="net_85"/>
  <line x1="924" x2="924" y1="620" y2="449" class="net_85"/>
  <line x1="924" x2="994.25" y1="449" y2="449" class="net_85"/>
  <line x1="784" x2="994.75" y1="745" y2="745" class="net_124,125,126"/>
  <line x1="994.75" x2="994.75" y1="745" y2="469.5" class="net_124,125,126"/>
  <line x1="1205" x2="1430" y1="1147" y2="1147" class="net_53,52"/>
  <line x1="1430" x2="1430" y1="1147" y2="1232.5" class="net_53,52"/>
  <line x1="1430" x2="498" y1="1232.5" y2="1232.5" class="net_53,52"/>
  <line x1="498" x2="498" y1="1232.5" y2="798.5" class="net_53,52"/>
  <line x1="498" x2="541" y1="798.5" y2="798.5" class="net_53,52"/>
</svg>
